<svg width="24" height="24" viewBox="0 0 24 24" fill="none" xmlns="http://www.w3.org/2000/svg">
<g clip-path="url(#clip0_164_621)">
<path d="M21.3334 4H2.66671C2.31309 4 1.97395 4.14048 1.7239 4.39052C1.47385 4.64057 1.33337 4.97971 1.33337 5.33333V18.6667C1.33337 19.0203 1.47385 19.3594 1.7239 19.6095C1.97395 19.8595 2.31309 20 2.66671 20H21.3334C21.687 20 22.0261 19.8595 22.2762 19.6095C22.5262 19.3594 22.6667 19.0203 22.6667 18.6667V5.33333C22.6667 4.97971 22.5262 4.64057 22.2762 4.39052C22.0261 4.14048 21.687 4 21.3334 4ZM18.5134 14.5867C18.4512 14.6537 18.3759 14.7072 18.2922 14.7439C18.2085 14.7806 18.1181 14.7997 18.0267 14.8C17.8583 14.7994 17.6963 14.7351 17.5734 14.62C17.4437 14.5005 17.3668 14.3344 17.3593 14.1583C17.3518 13.9821 17.4144 13.8101 17.5334 13.68L18.4734 12.6667H5.52671L6.46671 13.68C6.58571 13.8101 6.64831 13.9821 6.64082 14.1583C6.63332 14.3344 6.55633 14.5005 6.42671 14.62C6.31056 14.7291 6.1592 14.7929 6.00004 14.8C5.90863 14.7997 5.81826 14.7806 5.73453 14.7439C5.65081 14.7072 5.57553 14.6537 5.51337 14.5867L3.09337 12L5.48671 9.41333C5.60694 9.28338 5.77387 9.20651 5.95078 9.19963C6.12769 9.19275 6.30009 9.25643 6.43004 9.37667C6.56 9.4969 6.63687 9.66383 6.64374 9.84074C6.65062 10.0176 6.58694 10.19 6.46671 10.32L5.52671 11.3333H18.4734L17.5334 10.32C17.4738 10.2557 17.4276 10.1802 17.3972 10.098C17.3668 10.0157 17.3529 9.92834 17.3563 9.84074C17.3632 9.66383 17.4401 9.4969 17.57 9.37667C17.7 9.25643 17.8724 9.19275 18.0493 9.19963C18.2262 9.20651 18.3931 9.28338 18.5134 9.41333L20.9067 12L18.5134 14.5867Z" fill="#FCAE16"/>
</g>
<defs>
<clipPath id="clip0_164_621">
<rect width="24" height="24" fill="white"/>
</clipPath>
</defs>
</svg>
