<svg width="81" height="80" viewBox="0 0 81 80" fill="none" xmlns="http://www.w3.org/2000/svg">
<g clip-path="url(#clip0_150_104)">
<path d="M17.4092 71.1805C17.8615 71.1476 18.6024 71.2709 18.7974 71.6572C19.0314 72.1257 18.735 73.0299 19.1561 73.2682C19.4993 73.4655 20.0764 73.0463 20.4819 73.1203C21.1916 73.2518 20.9732 74.6984 21.6985 74.7806C21.9481 74.8053 22.2444 74.6491 22.494 74.4683C20.1622 75.7998 17.8304 77.1232 15.4518 78.4547C15.9821 76.0875 16.6138 73.671 17.4092 71.1887V71.1805Z" fill="#8B8B8B"/>
<path d="M58.134 47.0317C56.7536 46.3495 54.8585 44.7878 55.1081 43.4316C55.4122 41.8042 58.173 39.8972 57.4399 38.5492C56.8472 37.4561 54.3126 37.5958 53.2832 36.7081C51.5051 35.1711 55.1861 31.686 53.2442 30.2476C52.5735 29.7544 51.3881 29.6722 50.2807 29.7462C59.8185 30.1407 69.3563 30.5353 79.0345 31.0284C72.5226 36.4286 65.6363 41.7631 58.134 47.0317Z" fill="#FCAE16"/>
<path d="M26.0112 51.1497C26.0112 51.1497 25.9644 51.1497 25.941 51.1333C25.8552 51.0922 25.8162 50.9853 25.8552 50.8949C28.6549 44.4344 31.6574 37.9657 34.7769 31.6696C34.8237 31.5792 34.9251 31.5463 35.003 31.5956C35.0888 31.6449 35.12 31.7518 35.0732 31.834C31.9538 38.1219 28.9513 44.5906 26.1593 51.0428C26.1281 51.1086 26.0735 51.1497 26.0034 51.1497H26.0112Z" fill="#8B8B8B"/>
<path d="M28.1792 56.1307C28.1792 56.1307 28.1324 56.1307 28.109 56.1142C28.0232 56.0731 27.992 55.9663 28.031 55.8759C31.6106 47.9852 35.0733 39.9055 38.3331 31.8751C38.3721 31.7846 38.4657 31.7435 38.5515 31.7846C38.6373 31.8257 38.6762 31.9244 38.6373 32.0148C35.3774 40.0534 31.907 48.1414 28.3352 56.0321C28.304 56.0978 28.2494 56.1307 28.187 56.1307H28.1792Z" fill="#8B8B8B"/>
<path d="M31.556 58.3582C31.556 58.3582 31.5093 58.3582 31.4859 58.3417C31.4001 58.3006 31.3611 58.1938 31.4001 58.1116L42.7316 30.9709C42.7706 30.8805 42.8719 30.8394 42.9499 30.8805C43.0357 30.9216 43.0747 31.0285 43.0357 31.1107L31.7042 58.2513C31.673 58.3171 31.6184 58.3582 31.5482 58.3582H31.556Z" fill="#8B8B8B"/>
<path d="M37.2803 57.4376C37.2803 57.4376 37.2413 57.4376 37.2179 57.4294C37.1321 57.3965 37.0853 57.2896 37.1243 57.1992C39.8227 49.8757 42.6302 42.4864 45.4689 35.2368C45.5079 35.1464 45.6015 35.1053 45.6873 35.1382C45.7731 35.1793 45.8121 35.2779 45.7809 35.3683C42.9421 42.6179 40.1346 50.0072 37.4363 57.3307C37.4129 57.4047 37.3505 57.4458 37.2803 57.4458V57.4376Z" fill="#8B8B8B"/>
<path d="M41.5384 57.5691C41.5384 57.5691 41.4994 57.5691 41.4838 57.5609C41.398 57.528 41.3512 57.4293 41.3824 57.3389C43.41 51.1661 45.6795 44.9933 48.1127 38.9931C48.1516 38.9027 48.2452 38.8616 48.331 38.9027C48.4168 38.9438 48.4558 39.0424 48.4168 39.1328C45.9836 45.1248 43.722 51.2894 41.6943 57.454C41.6709 57.528 41.6085 57.5691 41.5384 57.5691Z" fill="#8B8B8B"/>
<path d="M46.0226 57.3307C46.0226 57.3307 45.9836 57.3307 45.968 57.3225C45.8822 57.2896 45.8354 57.191 45.8666 57.1006L50.6394 42.4288C50.6706 42.3384 50.7642 42.2891 50.85 42.322C50.9358 42.3549 50.9826 42.4535 50.9514 42.5439L46.1786 57.2156C46.1552 57.2896 46.0928 57.3389 46.0226 57.3389V57.3307Z" fill="#8B8B8B"/>
<path d="M43.1995 8.22765C42.8564 8.54821 42.2091 8.93452 41.8269 8.7537C41.3746 8.53999 41.0783 7.63585 40.6025 7.71804C40.2204 7.79202 40.0098 8.49067 39.6433 8.69616C39.0116 9.05782 38.3331 7.76736 37.717 8.17833C37.5065 8.31806 37.3583 8.63862 37.2725 8.94274C38.3331 6.37827 39.3937 3.82202 40.4934 1.22467C41.4604 3.4357 42.3728 5.74537 43.1995 8.21943V8.22765Z" fill="#8B8B8B"/>
<path d="M50.0078 57.3883C50.0078 57.3883 49.9766 57.3883 49.9532 57.38C49.8674 57.3472 49.8128 57.2485 49.844 57.1581L52.7607 47.6646C52.7919 47.5742 52.8855 47.5167 52.9713 47.5496C53.057 47.5824 53.1116 47.6811 53.0804 47.7715L50.1637 57.265C50.1403 57.3389 50.0779 57.3883 50 57.3883H50.0078Z" fill="#8B8B8B"/>
<path d="M64.2949 79.589L40.0176 61.1364C40.0176 61.1364 40.002 61.1364 39.9942 61.1364L15.4205 79.1781C15.4205 79.1781 15.3816 79.1781 15.3893 79.1534L24.545 49.1113C24.545 49.1113 24.545 49.0949 24.545 49.0866L0.65762 30.0257C0.65762 30.0257 0.649821 29.9846 0.673217 29.9846L30.6124 29.8695C30.6124 29.8695 30.628 29.8695 30.6358 29.8531L40.275 0.550721C40.3374 0.369893 40.5791 0.369893 40.6415 0.550721L49.8362 30.0175C49.8362 30.0175 49.844 30.0339 49.8596 30.0339L79.791 30.6586C79.791 30.6586 79.8221 30.6915 79.8065 30.6997L55.6462 49.3332C55.6462 49.3332 55.6384 49.3497 55.6384 49.3579L64.3261 79.5562C64.3261 79.5562 64.3105 79.5973 64.2949 79.5808V79.589Z" stroke="#474747" stroke-miterlimit="10"/>
</g>
<defs>
<clipPath id="clip0_150_104">
<rect width="79.9444" height="80" fill="white" transform="translate(0.259888)"/>
</clipPath>
</defs>
</svg>
