<svg width="81" height="80" viewBox="0 0 81 80" fill="none" xmlns="http://www.w3.org/2000/svg">
<g clip-path="url(#clip0_150_429)">
<path d="M16.7215 26.1249C13.8157 39.1696 10.9099 52.2427 8.94485 65.9333C10.4418 66.7424 12.0036 67.225 13.5793 67.3669C14.1772 64.0099 14.775 60.6529 15.3682 57.2959C15.3682 57.2959 15.2802 57.1895 15.1689 57.154C16.36 57.5231 17.4398 58.5663 18.3482 59.858C19.2565 61.1497 20.0119 62.6969 20.8508 64.4783C20.7627 66.3804 21.6294 68.1973 22.7416 68.8431C23.8539 69.4961 25.1376 69.0986 26.1711 67.9773C26.0692 68.8077 26.0692 69.6735 26.1711 70.511C26.2175 70.8729 26.2777 71.2349 26.3843 71.5614C26.6068 72.2498 27.0007 72.7679 27.4271 73.1228C28.1547 73.726 29.0121 73.9177 29.8833 73.6764C29.7953 75.259 30.5368 76.7637 31.4637 77.3172C32.3906 77.8708 33.4472 77.6082 34.4158 77.0262C34.5641 77.5727 34.7263 78.1334 34.9998 78.538C35.3103 78.9922 35.732 79.1909 36.1491 79.269C37.1455 79.4535 38.179 78.9993 39.1105 78.105C40.1301 78.9993 41.4231 79.0348 42.4613 78.1902C42.7347 77.9702 42.9896 77.6863 43.1981 77.3314C43.6199 76.6075 43.8099 75.5997 43.847 74.6061C43.884 73.6196 43.7774 72.626 43.7404 71.6182C44.2548 72.5763 44.7924 73.5273 45.4644 74.1945C46.1364 74.8616 46.9613 75.2094 47.7214 74.8829C48.3517 74.6061 48.8892 73.8822 49.2368 72.9879C49.5844 72.1008 49.7605 71.0575 49.8115 69.8651C50.0664 70.5394 50.3445 71.1852 50.6503 71.8027C50.933 72.3847 51.2436 72.9453 51.6236 73.357C52.0036 73.7686 52.467 74.0241 52.9212 73.9461C53.6257 73.8183 54.2003 72.8957 54.483 71.8453C54.7657 70.7949 54.8074 69.6309 54.8492 68.4883C54.8723 67.8282 54.8955 67.1682 54.877 66.494C55.2477 67.6224 55.6231 68.758 56.119 69.7516C56.6149 70.7452 57.2405 71.6111 57.9913 72.044C58.1767 72.1505 58.3667 72.2285 58.5567 72.3066C58.8626 72.4343 59.2148 72.5408 59.479 72.2498C59.6875 72.0156 59.771 71.5898 59.8034 71.1781C59.8312 70.7736 59.8173 70.3549 59.9656 69.9432C62.8112 68.2257 65.6104 66.3094 68.3215 64.2512C68.595 65.8552 68.8962 67.445 69.2994 68.978C71.3293 68.2186 73.2989 67.0546 75.1203 65.5429C76.7284 64.5564 78.3088 63.4563 79.7455 62.0014C79.5137 49.0844 78.1466 35.9901 74.4715 24.4996C74.2397 23.7757 73.9987 23.0589 73.628 22.4414C69.596 24.6984 65.6706 27.445 61.8935 30.6529C62.0001 30.9794 62.1067 31.313 62.0975 31.6749C58.186 32.1221 54.3625 30 50.6689 27.8992C49.4964 27.2321 48.3053 26.5578 47.0679 26.423C45.9649 26.3023 44.8665 26.6146 43.6338 26.7849C42.3269 25.5074 40.8624 24.6984 39.3886 24.0383C38.4988 23.6409 37.5858 23.2931 36.6635 23.3073C35.8154 23.3215 34.9812 23.648 34.1702 24.0312C29.7906 26.0894 25.6984 29.8864 21.152 30.5678C21.1891 30.0781 21.2262 29.5884 21.2586 29.0915C21.2771 28.8289 21.291 28.5309 21.203 28.3179C19.7292 27.3598 18.2323 26.3875 16.7307 26.1249H16.7215Z" fill="white"/>
<path d="M77.6321 61.7104C77.6321 61.7104 77.5997 61.7104 77.5812 61.6962L73.5724 59.269C73.5028 59.2264 73.4704 59.1057 73.4982 59.0064C73.526 58.8999 73.6048 58.8502 73.6697 58.8928L77.6785 61.3201C77.748 61.3627 77.7805 61.4833 77.7527 61.5827C77.7341 61.6607 77.6831 61.7104 77.6275 61.7104H77.6321Z" fill="black"/>
<path d="M78.9901 59.2903C78.9901 59.2903 78.9623 59.2903 78.9437 59.2761C76.7377 58.0696 74.5503 56.643 72.4462 55.039C72.3813 54.9894 72.3535 54.8687 72.386 54.7623C72.4184 54.6629 72.4972 54.6203 72.5667 54.67C74.6615 56.2669 76.8397 57.6863 79.0364 58.8928C79.1059 58.9283 79.143 59.049 79.1152 59.1554C79.0967 59.2406 79.0457 59.2903 78.9901 59.2903Z" fill="black"/>
<path d="M79.3284 55.4933C79.3284 55.4933 79.3006 55.4932 79.2867 55.4791C76.835 54.1874 74.3834 52.7182 72.0106 51.1072C71.941 51.0646 71.9132 50.9439 71.941 50.8375C71.9689 50.731 72.0523 50.6884 72.1172 50.731C74.4854 52.335 76.9277 53.8041 79.3701 55.0887C79.4396 55.1242 79.4767 55.2448 79.4535 55.3513C79.435 55.4365 79.384 55.4862 79.3284 55.4862V55.4933Z" fill="black"/>
<path d="M79.3284 51.8453C79.3284 51.8453 79.2959 51.8453 79.2774 51.8311C76.4272 50.1136 74.2119 48.6302 71.1625 46.5578C71.0929 46.5153 71.0651 46.3946 71.0929 46.2882C71.1207 46.1817 71.2042 46.1391 71.269 46.1817C74.3185 48.247 76.5245 49.7303 79.3747 51.4478C79.4442 51.4904 79.4767 51.6111 79.4489 51.7104C79.4303 51.7885 79.3793 51.8382 79.3237 51.8382L79.3284 51.8453Z" fill="black"/>
<path d="M78.6193 47.7289C78.6193 47.7289 78.5822 47.7289 78.5683 47.7147L70.3839 42.3492C70.3144 42.3066 70.2866 42.186 70.3144 42.0795C70.3422 41.973 70.421 41.9305 70.4905 41.973L78.6749 47.3386C78.7444 47.3811 78.7722 47.5018 78.7444 47.6082C78.7213 47.6863 78.6749 47.7289 78.6193 47.7289Z" fill="black"/>
<path d="M78.3551 43.7899C78.3551 43.7899 78.318 43.7899 78.2995 43.7686L69.4106 37.4379C69.3457 37.3882 69.3133 37.2676 69.3457 37.1682C69.3782 37.0688 69.457 37.0192 69.5218 37.0688L78.4107 43.3996C78.4756 43.4493 78.5081 43.5699 78.4756 43.6693C78.4524 43.7402 78.4061 43.7899 78.3551 43.7899Z" fill="black"/>
<path d="M77.4885 38.8361C77.4885 38.8361 77.4514 38.8361 77.4329 38.8148L68.4652 32.335C68.4003 32.2853 68.3679 32.1647 68.4003 32.0653C68.4327 31.9588 68.5115 31.9233 68.5764 31.9659L77.5441 38.4457C77.609 38.4954 77.6414 38.616 77.609 38.7154C77.5858 38.7864 77.5395 38.8361 77.4885 38.8361Z" fill="black"/>
<path d="M75.4725 32.3563C75.4725 32.3563 75.4401 32.3563 75.4215 32.3421C73.1924 30.9652 70.9215 29.6381 68.6691 28.396C68.5996 28.3605 68.5625 28.2399 68.5903 28.1334C68.6135 28.027 68.6923 27.9702 68.7618 28.0128C71.0188 29.2548 73.2943 30.582 75.5235 31.9588C75.593 32.0014 75.6254 32.1221 75.5976 32.2285C75.5745 32.3066 75.5281 32.3563 75.4725 32.3563Z" fill="black"/>
<path d="M75.2964 27.7999C75.2964 27.7999 75.2593 27.7999 75.2408 27.7857L72.0384 25.6352C71.9689 25.5926 71.941 25.472 71.9688 25.3655C71.9967 25.2591 72.0754 25.2165 72.145 25.2591L75.3474 27.4095C75.4169 27.4521 75.4447 27.5728 75.4169 27.6792C75.3937 27.7573 75.3474 27.7999 75.2964 27.7999Z" fill="black"/>
<path d="M7.4342 21.3201C10.5995 23.0305 13.7973 24.5777 16.8468 26.0469C16.3463 29.4393 15.0625 32.3705 14.2005 35.5713C13.7417 37.2676 13.4034 39.0348 13.0697 40.8091C11.4986 49.0987 9.99706 57.4166 8.55574 65.763C5.73336 64.2087 3.54589 63.4138 0.519592 62.5479C3.3049 48.6231 5.81678 35.2449 7.43884 21.3272L7.4342 21.3201Z" fill="#ACD4F7"/>
<g opacity="0.13">
<path d="M67.1815 62.5266C66.6856 62.7608 66.2036 63.0447 65.7309 63.3641C65.6243 63.3641 65.5131 63.3712 65.4111 63.4067C65.1701 63.4705 64.9476 63.6267 64.7206 63.7757C64.4703 63.9106 64.2339 64.0454 63.993 64.2087C63.8956 64.2654 63.6083 64.4429 63.4924 64.4925C63.4554 64.5067 63.4322 64.528 63.4044 64.5422C63.3349 64.5777 63.2607 64.6203 63.1866 64.6487C63.1448 64.6487 63.0985 64.6487 63.0568 64.6487C63.0104 64.6345 62.9595 64.6132 62.9131 64.5919C62.8112 64.4358 62.7138 64.2654 62.6258 64.0951C62.5053 63.8538 62.6397 64.1306 62.686 64.2228C62.6072 64.0525 62.5238 63.8893 62.4358 63.7331C62.408 63.6835 62.3894 63.6409 62.3709 63.6054C62.2875 63.4209 62.2133 63.2292 62.1392 63.0376C61.824 62.2711 61.5413 61.4691 61.2818 60.66C60.7257 58.9354 60.2159 57.1682 59.6273 55.472C59.2843 54.3151 58.9924 53.1157 58.5614 52.0369C57.3286 49.0135 56.1329 46.643 54.2884 44.0028C53.1251 42.1079 51.7858 40.4897 50.3491 39.1767C49.3759 38.3109 48.3563 37.4521 47.2255 37.3243C46.433 37.0334 46.243 38.9212 47.0586 39.0064C47.8002 39.0703 48.5926 39.6096 49.4454 40.3974C49.3666 40.7097 49.3851 41.0788 49.5752 41.4052C50.363 42.5053 51.2714 43.3499 52.0917 44.3861C52.0546 44.3435 52.5088 44.9681 52.6015 45.1242C52.6988 45.2732 52.7915 45.4294 52.8795 45.5855C52.8054 45.6991 52.7544 45.8552 52.759 46.0326C52.8146 46.5791 53.1947 47.225 53.3708 47.736C54.2745 49.9432 55.3358 52.0014 56.1005 54.3435C57.1154 57.5585 57.8523 60.7594 58.1906 65.0674C58.3667 66.423 58.464 68.8928 58.1906 69.6026C58.1674 69.6451 58.1443 69.6877 58.1165 69.7232C58.0933 69.7445 58.0747 69.7587 58.0608 69.7729C58.0238 69.7942 57.9913 69.8084 57.9542 69.8368C57.9357 69.8439 57.9218 69.8581 57.9033 69.8652C57.8986 69.8652 57.894 69.8652 57.8894 69.8652C57.8152 69.8652 57.7272 69.8651 57.6715 69.8581C57.6437 69.851 57.6159 69.8439 57.5881 69.8368C57.2823 69.709 57.4491 69.8226 56.9903 69.4251C56.2812 68.7793 55.6741 70.4684 56.3646 71.1426C58.1118 73.1654 59.34 72.4485 59.6829 69.709C59.8544 68.0554 59.7385 66.3662 59.5578 64.7197C59.6088 64.9681 59.6597 65.2165 59.7107 65.4649C59.8127 66.4443 59.8961 67.3669 59.9749 68.1902C59.961 68.2115 59.9471 68.2328 59.9378 68.2612C59.7385 68.7651 59.8868 69.3896 60.1649 69.6877C60.29 70.0071 60.5542 70.1561 60.7813 70.0568C60.9805 69.9574 61.0871 69.7658 61.1428 69.5316C63.0522 68.325 64.9476 67.0263 66.7041 65.3087C67.1166 64.8971 67.1212 64.8545 67.4642 64.6274C67.6403 64.5067 67.8581 64.3435 67.9647 64.0809C68.0481 63.9815 68.1269 63.868 68.1918 63.7189C68.5115 62.6402 67.7098 62.0866 67.1768 62.555L67.1815 62.5266Z" fill="#7BC3F5"/>
</g>
<g opacity="0.13">
<path d="M79.3979 59.3541C79.2959 59.3541 79.2032 59.3967 79.1105 59.4606C78.6656 59.6735 78.2671 60.1277 77.8314 60.3832C77.0575 60.9865 76.7562 61.1001 75.7181 61.895C73.9339 63.4209 70.9724 64.9113 69.3782 65.983C68.3308 66.494 68.7525 68.9851 69.8231 68.5664C71.4915 67.7005 73.0718 66.4443 74.6846 65.3371C75.5327 64.7055 77.1502 63.7686 78.4942 62.7111C79.1198 62.1859 79.903 61.5614 79.9772 61.2491C80.3711 60.5323 79.9864 59.3187 79.3979 59.347V59.3541Z" fill="#7BC3F5"/>
</g>
<g opacity="0.13">
<path d="M20.3085 31.7246C19.6319 35.6636 18.4362 38.5806 17.5557 42.917C17.0227 45.4507 16.6195 48.0412 16.3136 50.6671C16.1236 51.8311 15.9753 53.0092 15.8224 54.1874C15.7112 55.2307 15.5212 56.2952 15.637 57.3527C15.8039 58.3818 16.5129 58.8786 17.0876 58.5451C17.4537 59.1625 17.8384 59.7445 18.2277 60.3265C18.2277 60.2981 18.2277 60.2768 18.2277 60.2484C18.1999 59.0845 18.2091 57.9276 18.2508 56.7637C18.0979 55.9475 18.0423 55.4152 18.0099 54.7481C18.1582 53.4635 18.3482 52.193 18.4455 50.8943C18.8255 46.714 19.5624 42.6473 20.4059 38.6586C20.6608 37.4663 20.8554 36.2385 21.1798 35.0887C21.4069 34.0525 21.7823 32.995 21.7823 31.8808C21.7081 30.5891 20.4986 30.4613 20.3039 31.7175L20.3085 31.7246Z" fill="black"/>
</g>
<g opacity="0.13">
<path d="M21.0732 63.6764C21.0315 63.9319 20.8786 64.1235 20.7164 64.1093C20.8461 64.2229 20.9898 64.2796 21.1427 64.2087C21.3791 64.1093 21.5367 63.7261 21.5228 63.3428C21.3745 63.4564 21.2215 63.5699 21.0732 63.6835V63.6764Z" fill="black"/>
</g>
<g opacity="0.13">
<path d="M15.6417 57.3527L15.6046 56.8843C15.6046 57.0546 15.6185 57.2037 15.6417 57.3527Z" fill="black"/>
</g>
<g opacity="0.13">
<path d="M25.564 66.8772C25.2767 67.1895 24.8874 67.0901 24.1412 67.0759C23.65 66.9979 23.0104 67.0617 22.4543 66.7779C22.0882 66.643 21.7499 66.1888 21.3652 66.2669C20.6515 66.3662 20.5866 68.0908 21.2772 68.3747C21.7777 68.687 22.2828 68.9638 22.8112 69.1483C23.2561 69.3116 23.7102 69.4748 24.1598 69.2974C24.7206 69.1129 25.2535 68.7296 25.754 68.2896C25.958 68.0767 26.2314 67.9063 26.3102 67.516C26.4214 66.7921 25.8884 66.423 25.564 66.8843V66.8772Z" fill="#7BC3F5"/>
</g>
<g opacity="0.13">
<path d="M33.1414 68.4386C32.8911 68.5735 32.8401 68.7864 32.4508 69.1199C31.6722 69.8013 31.3386 69.929 30.3004 70.2555C29.3133 70.6671 29.3967 70.5749 28.303 70.6955C27.96 70.7168 27.6217 70.6955 27.2788 70.6246C27.0563 70.5678 26.8339 70.4187 26.6114 70.4968C25.717 70.6387 25.6335 72.7679 26.5002 73.137C28.7062 74.1661 30.5275 73.137 32.0893 71.6111C32.5621 71.1568 33.0301 70.6813 33.4333 70.071C33.6512 69.6735 33.7068 69.7445 33.7577 69.2051C33.7624 68.7012 33.438 68.3109 33.1414 68.4457V68.4386Z" fill="#7BC3F5"/>
</g>
<g opacity="0.13">
<path d="M42.4103 75.7488C41.9468 75.8552 42.0627 75.9475 41.8171 76.0681C41.6224 76.1533 41.5946 76.2952 40.8994 76.5649C40.4221 76.6998 40.4406 76.6927 40.3155 76.714C40.4082 76.5223 40.4453 76.2668 40.4175 76.0326C40.3989 75.55 40.107 75.181 39.815 75.1739C39.4535 75.2094 39.1754 75.692 38.8464 75.8978C38.1558 76.3875 38.3227 76.3094 37.3634 76.8275C36.4967 77.2179 36.0472 77.1824 35.7135 77.2179C35.3983 77.2037 35.0878 76.8701 34.8005 76.8133C35.3798 76.4514 35.9359 75.9546 36.4643 75.4294C37.0714 74.8403 37.6043 74.1022 38.1002 73.3002C38.2115 73.1441 38.2763 72.917 38.2763 72.6827C38.2763 72.3918 38.179 72.1363 38.0261 71.9872C37.8361 71.8027 37.5719 71.8595 37.4143 72.115C37.4468 72.0724 37.5302 71.973 37.4839 72.0227C37.2382 72.2711 36.988 72.5124 36.7377 72.7537C35.2964 74.2441 33.3916 75.1171 32.1542 75.4223C31.8623 75.472 31.5657 75.5287 31.269 75.4862C31.2459 75.4862 31.232 75.4862 31.2181 75.4791C31.2088 75.4791 31.1949 75.4791 31.1856 75.472C30.9632 75.4365 30.7407 75.259 30.5183 75.3087C29.9853 75.3868 29.9343 76.6714 30.4534 76.8843C30.9215 77.1469 31.3942 77.4024 31.8854 77.4734C32.4045 77.5656 32.9328 77.445 33.4472 77.3527C33.7299 77.3172 34.0034 77.2321 34.2675 77.1114C34.0173 77.5515 34.0265 78.3747 34.3973 78.6941C35.7413 79.7871 37.1919 79.56 38.5312 78.5806C38.7769 78.4244 39.0132 78.2328 39.2403 78.0199C39.2496 78.6728 39.5647 79.3258 40.0189 79.2974C40.8577 79.127 41.7615 79.049 42.4705 78.2328C42.6791 77.9702 42.9571 77.7502 43.0498 77.3314C43.2677 76.6217 42.8876 75.7417 42.4056 75.7558L42.4103 75.7488Z" fill="#7BC3F5"/>
</g>
<g opacity="0.13">
<path d="M49.1905 70.731C48.6761 71.1498 48.8012 71.2349 48.4675 71.5685C47.9716 72.1221 48.0365 72.0582 47.3182 72.3563C46.7296 72.5195 47.0865 72.484 46.5767 72.4982C46.5164 72.4982 46.4608 72.484 46.4006 72.4769C46.3357 72.4556 46.2523 72.4344 46.192 72.406C45.7656 72.2924 45.3115 71.7814 44.8944 72.193C44.3429 72.6757 44.4587 74.1164 45.0705 74.3577C45.6312 74.6274 46.2105 74.89 46.8038 74.8261C47.5082 74.7481 48.1987 74.3293 48.7919 73.7048C49.0746 73.3854 49.3434 73.0234 49.603 72.6544C49.793 72.406 49.9784 72.1008 49.9691 71.682C49.9784 71.0433 49.5705 70.5536 49.1905 70.731Z" fill="#7BC3F5"/>
</g>
<g opacity="0.13">
<path d="M55.0114 67.4521C55.0114 66.9553 54.8075 66.4656 54.497 66.3449C54.4784 66.3449 54.4645 66.3378 54.446 66.3307C54.446 65.3939 54.4599 64.45 54.3116 63.5415C54.0984 62.1221 53.6164 60.8729 53.2178 59.5671C52.8517 58.1973 52.3744 56.8772 51.7626 55.7558C51.5031 55.3868 51.0628 55.7487 51.0721 56.3023C51.0953 56.7778 51.3641 57.1114 51.4985 57.5089C52.2539 59.2832 52.5088 60.6033 52.8703 62.7253C53.3105 64.9539 53.3893 66.0326 53.2596 68.3321C53.2596 68.3605 53.2595 68.3818 53.2549 68.4031C53.241 68.5096 53.2317 68.6089 53.2178 68.7154C53.2132 68.7651 53.1993 68.8502 53.1808 68.9354C53.1066 69.127 53.0325 69.3116 52.949 69.4961C52.8471 69.6877 52.6432 70.0781 52.5273 70.2484C52.4995 70.2768 52.4763 70.2981 52.4532 70.3194C52.2261 70.3548 52.0546 70.3407 51.4475 70.0213C51.276 69.9148 51.2389 69.8864 51.4336 70.0213C51.1277 69.8509 50.8496 69.5103 50.5299 69.418C49.8115 69.2051 49.4593 70.88 50.0942 71.4407C50.3167 71.6253 50.5623 71.8027 50.7801 71.9588C50.8265 72.335 50.9562 72.6898 51.1833 72.8886C51.2343 72.9382 51.2899 72.9737 51.3455 73.0092C51.3641 73.4705 51.5355 73.9106 51.9017 74.088C52.2075 74.2228 52.5273 74.3577 52.8471 74.2441C52.9583 74.2157 53.1761 74.0596 53.2086 74.0312C53.5283 73.8112 53.8574 73.506 53.9964 72.9879C54.0752 72.7253 54.0798 72.4627 54.0335 72.2214C54.154 72.0227 54.2235 71.7601 54.2374 71.4904C54.5526 70.8233 54.7797 70.0426 54.8955 69.2406C54.965 68.6799 55.0067 68.105 55.0114 67.5373C55.0114 67.516 55.0114 67.4947 55.0114 67.4734C55.0114 67.4592 55.0114 67.445 55.0114 67.4379V67.4521Z" fill="#7BC3F5"/>
</g>
<path d="M13.3476 68.0341C13.3244 68.0341 13.2966 68.0341 13.2734 68.0199C10.9933 67.3527 8.63435 66.6643 6.30786 65.6423C5.40877 65.1597 4.53749 64.8403 3.61987 64.5067C2.61883 64.1377 1.58071 63.7615 0.524053 63.1654C0.315503 63.0518 0.20891 62.6969 0.287696 62.3776C0.366482 62.0582 0.59357 61.895 0.802121 62.0156C1.81707 62.5905 2.83201 62.9595 3.80988 63.3144C4.70897 63.6409 5.63586 63.9815 6.55348 64.4713C8.69924 65.4081 10.9052 66.0752 13.051 66.6998C13.9825 60.653 15.2477 54.7481 16.4712 49.0277C17.1988 45.621 17.9542 42.1008 18.6401 38.5451C18.6401 38.5309 18.6448 38.5167 18.6494 38.5025C18.8811 37.5798 19.1268 36.6714 19.3631 35.7984C20.0119 33.428 20.6237 31.1781 20.9249 28.5806C20.9157 28.5593 20.9018 28.538 20.8879 28.5238C20.8369 28.5238 20.8091 28.5167 20.7627 28.4812C18.7467 27.2463 16.6381 26.3449 14.5989 25.4791C12.1843 24.45 9.68638 23.3854 7.25792 21.7459C7.054 21.6111 6.96595 21.2491 7.054 20.9368C7.14206 20.6246 7.37842 20.4897 7.58233 20.6246C9.95517 22.2285 12.4253 23.286 14.8121 24.3009C16.8559 25.1739 18.9646 26.0681 21.0037 27.3102C21.3976 27.3882 21.7313 27.9631 21.7313 28.5877C21.7313 28.6231 21.7313 28.6586 21.7267 28.6941C21.4116 31.4691 20.7442 33.9106 20.1 36.2669C19.8636 37.1256 19.6227 38.0128 19.4002 38.9141C18.7097 42.484 17.9589 46.0043 17.2266 49.4109C15.9105 55.5571 14.6684 61.3556 13.7369 67.5515C13.6952 67.8353 13.5283 68.027 13.3476 68.027V68.0341Z" fill="black"/>
<path d="M8.67144 66.1391C8.63899 66.1391 8.61119 66.1391 8.57875 66.1249C8.36556 66.0468 8.23116 65.7133 8.28214 65.3868C10.4047 51.7743 13.3939 37.303 16.4851 25.692C16.5686 25.3797 16.8049 25.2306 17.0088 25.3513C17.2127 25.4791 17.3147 25.841 17.2313 26.1533C14.1586 37.7147 11.1787 52.115 9.06536 65.6707C9.02365 65.9546 8.85681 66.1391 8.67607 66.1391H8.67144Z" fill="black"/>
<path d="M69.2484 69.7658C69.1835 69.7658 69.1233 69.7445 69.0677 69.7019C68.9657 69.6239 68.8916 69.4819 68.8638 69.3187C67.3946 61.1923 65.8421 53.0731 64.1922 44.4713C63.3441 40.0355 62.4636 35.4436 61.5877 30.7949C61.5367 30.5252 61.6155 30.2342 61.773 30.0923C65.5177 26.8346 69.457 24.0454 73.4797 21.8098C73.6882 21.6962 73.9153 21.8595 73.9941 22.1789C74.0683 22.4982 73.9617 22.846 73.7531 22.9667C69.8694 25.1242 66.0646 27.7999 62.4404 30.9297C63.2885 35.4152 64.1366 39.8439 64.9569 44.1306C66.5604 52.5053 68.0759 60.4258 69.5126 68.3464C72.9328 66.3804 76.3345 64.1306 79.625 61.6608C79.8243 61.5117 80.0653 61.6395 80.1626 61.9446C80.2599 62.2498 80.1765 62.6189 79.9772 62.7679C76.5338 65.3513 72.9699 67.6934 69.3828 69.7303C69.3365 69.7587 69.2901 69.7658 69.2438 69.7658H69.2484Z" fill="#474747"/>
<path d="M73.6975 66.6572C73.5168 66.6572 73.3545 66.4726 73.3082 66.1959C71.1532 53.1511 68.6923 40.0568 65.9997 27.2746C65.9302 26.9553 66.046 26.6075 66.2592 26.501C66.4724 26.3946 66.6948 26.572 66.7643 26.8985C69.4616 39.7019 71.9271 52.8247 74.0868 65.8907C74.1424 66.2172 74.0126 66.5507 73.7948 66.6359C73.7624 66.6501 73.7299 66.6572 73.6975 66.6572Z" fill="#474747"/>
<path d="M32.7938 48.978C31.9318 48.978 30.9215 48.3747 30.4719 46.9766C29.6748 44.4996 31.1717 41.7104 31.663 40.7949C33.6929 37.0121 35.7923 33.1086 38.4015 30.1561C41.3536 26.8204 44.5792 25.3158 47.485 25.9049C48.9727 26.2101 50.3815 27.0475 51.7487 27.8566C52.189 28.1192 52.6432 28.3889 53.0881 28.6373C55.9243 30.1987 58.8858 31.0291 61.8843 31.1001C62.1067 31.1001 62.2828 31.384 62.2782 31.7246C62.2782 32.0582 62.0975 32.3279 61.8796 32.3279H61.875C58.7884 32.2569 55.7436 31.4052 52.8239 29.7942C52.3651 29.5458 51.9063 29.269 51.4614 29.0064C50.1405 28.2186 48.7734 27.4095 47.383 27.1256C44.6858 26.572 41.6641 28.0057 38.8834 31.1426C36.353 34.0028 34.2861 37.8495 32.2886 41.5756C31.1717 43.6551 30.8149 45.2448 31.1995 46.4372C31.5193 47.4308 32.2979 47.814 32.9235 47.7502C33.6511 47.6792 34.337 47.1682 35.0971 46.5507C35.6069 46.1391 36.1167 45.7346 36.6265 45.3229C39.7316 42.8389 42.6652 40.4897 45.4505 37.3385C45.6266 37.1398 45.8815 37.1966 46.0112 37.4663C46.141 37.736 46.1039 38.1192 45.9278 38.325C43.0962 41.533 40.1348 43.9035 37.0019 46.4088C36.4967 46.8133 35.9869 47.2179 35.4771 47.6295C34.6661 48.2896 33.8643 48.8786 32.9791 48.9709C32.9235 48.9709 32.8633 48.978 32.803 48.978H32.7938Z" fill="#474747"/>
<path d="M60.1232 70.6246C59.9703 70.6246 59.822 70.4897 59.7571 70.2555C59.669 69.9432 59.7617 69.5813 59.9656 69.4464C62.6258 67.6863 65.3092 65.8552 67.9369 64.0099C68.1362 63.868 68.3772 64.0099 68.4699 64.3151C68.5625 64.6203 68.4699 64.9893 68.2706 65.1313C65.6336 66.9837 62.9456 68.8148 60.2808 70.582C60.2298 70.6175 60.1742 70.6316 60.1232 70.6316V70.6246Z" fill="black"/>
<path d="M59.0897 73.0092C59.0109 73.0092 58.9367 73.0021 58.8719 72.9879C57.6345 72.775 56.4156 71.462 55.535 69.3754C54.9743 68.0483 54.585 66.572 54.205 65.1384C54.0845 64.6842 53.9686 64.237 53.8435 63.7899C52.8424 60.1845 51.4845 56.8843 49.8161 53.9886C49.6678 53.7331 49.6864 53.3499 49.8532 53.1228C50.02 52.8957 50.2703 52.9241 50.4186 53.1796C52.1473 56.1746 53.5469 59.5884 54.585 63.3144C54.7101 63.7686 54.8306 64.23 54.9511 64.6842C55.3126 66.061 55.688 67.4805 56.207 68.7083C56.9578 70.4826 57.9635 71.5969 58.9599 71.7672C59.1036 71.7885 59.2009 71.7814 59.2426 71.7317C59.2936 71.682 59.3724 71.4975 59.3631 70.8162C59.2287 63.9319 57.8198 57.0121 55.3914 51.3272C52.9676 45.6565 49.4593 41.0575 45.5153 38.3889C45.3114 38.2541 45.2234 37.8921 45.3114 37.5798C45.3995 37.2676 45.6358 37.1327 45.8398 37.2676C49.9227 40.0355 53.5561 44.7906 56.0634 50.66C58.5706 56.5224 60.0258 63.6693 60.1649 70.7807C60.1741 71.1781 60.1927 72.2427 59.6875 72.7608C59.4929 72.9595 59.2751 73.0092 59.0897 73.0092Z" fill="#474747"/>
<path d="M40.6353 79.5174C40.1162 79.5174 39.4442 79.3825 38.712 78.5238C38.5359 78.3179 38.5034 77.9347 38.6378 77.665C38.7722 77.3953 39.0225 77.3456 39.1986 77.5514C39.8752 78.3463 40.4453 78.3108 40.9458 78.2754H41.0014C41.7429 78.2257 42.5215 77.6437 42.9896 76.792C43.2074 76.3946 43.453 75.7629 43.3882 74.9964C43.3882 74.968 43.3882 74.9468 43.3882 74.9184C43.3882 73.648 43.2816 72.3634 43.1842 71.3768C43.1564 71.1072 43.2491 70.8446 43.4113 70.731C43.5735 70.6174 43.7635 70.6813 43.884 70.8871C44.4402 71.8807 45.0195 72.9027 45.7239 73.577C46.4469 74.2725 47.2487 74.4712 47.8697 74.1093C48.7317 73.5983 49.6169 71.1781 49.4176 69.858C49.3666 69.5245 49.501 69.198 49.7188 69.1199C49.9366 69.0419 50.1498 69.2548 50.2008 69.5812C50.4881 71.5046 49.399 74.5209 48.157 75.2519C47.2904 75.7629 46.2476 75.5287 45.2976 74.6132C44.8665 74.1944 44.4865 73.6905 44.1343 73.1441C44.1667 73.7047 44.1899 74.2938 44.1899 74.8758C44.2594 75.8197 44.0601 76.7565 43.606 77.5798C42.9896 78.7012 42.0071 79.4322 41.0385 79.4961H40.9875C40.8809 79.5032 40.7651 79.5174 40.6353 79.5174Z" fill="#474747"/>
<path d="M52.7961 74.6558C52.4856 74.6558 52.1843 74.5209 51.897 74.3435C50.4881 73.4634 49.7466 71.0149 49.0283 68.6444C48.5324 67.005 48.018 65.3158 47.3182 64.3151C47.156 64.0809 47.1467 63.6976 47.2996 63.4492C47.4526 63.2008 47.7028 63.1866 47.865 63.4208C48.6761 64.5848 49.2229 66.3875 49.7513 68.1334C50.4325 70.3903 51.0813 72.5195 52.1936 73.215C52.6849 73.5202 53.2456 73.868 54.0335 71.7317C54.2513 71.1426 54.3116 70.3903 54.344 69.6664C54.4228 67.814 54.1169 65.9049 53.8157 64.0525C53.7693 63.7686 53.723 63.4847 53.6813 63.2079C53.6303 62.8815 53.7601 62.5479 53.9779 62.4698C54.1957 62.3917 54.4089 62.5905 54.4599 62.924C54.5016 63.2008 54.5479 63.4847 54.5943 63.7615C54.9094 65.6991 55.2338 67.7076 55.1458 69.7516C55.1087 70.6174 55.0345 71.533 54.7379 72.3421C54.0752 74.1377 53.4125 74.67 52.7961 74.67V74.6558Z" fill="#474747"/>
<path d="M28.7711 74.2938C28.7386 74.2938 28.7062 74.2938 28.6738 74.2938C27.492 74.2512 26.1016 73.1228 25.7309 71.0504C25.6104 70.3761 25.6057 69.6948 25.6614 69.0419C24.9106 69.7587 23.9837 70.0497 23.1031 69.7942C21.7174 69.3967 20.5542 67.5727 20.3364 65.4649C20.2668 64.7693 20.3456 64.2299 20.5774 63.8609C20.7303 63.6196 20.9852 63.6125 21.1428 63.8467C21.3003 64.0809 21.305 64.4713 21.152 64.7126C21.1242 64.7551 21.0871 64.9184 21.1242 65.2732C21.2911 66.8843 22.1855 68.2754 23.2468 68.5876C24.2803 68.8857 25.3833 68.2186 25.995 66.9198C26.1016 66.6998 26.287 66.6075 26.4538 66.6998C26.5836 66.5933 26.6995 66.5224 26.7783 66.4727C28.2613 65.5429 29.8138 64.9681 31.4034 64.7693C33.0116 64.5706 33.679 65.4649 33.9524 66.2527C34.1424 66.792 34.2073 67.4592 34.147 68.2257C34.0729 69.2051 33.8041 70.1632 33.4009 70.9084C33.007 71.6324 32.5018 72.1505 32.0198 72.5976C31.1625 73.3854 30.0224 74.2867 28.7803 74.2867L28.7711 74.2938ZM26.6021 68.0412C26.4399 69.0419 26.3519 69.9077 26.5002 70.7239C26.769 72.2143 27.8071 73.0305 28.6923 73.066C29.7675 73.1086 30.8102 72.2782 31.5981 71.5543C32.0245 71.1639 32.4601 70.7239 32.7752 70.1348C33.0811 69.5671 33.285 68.836 33.3453 68.0908C33.3731 67.736 33.3777 67.2392 33.2387 66.8417C32.9421 65.9972 32.1079 65.9191 31.4591 65.9972C29.9575 66.1817 28.4791 66.7282 27.0749 67.6082C26.8431 67.7502 26.6902 67.8921 26.6021 68.0341V68.0412Z" fill="#474747"/>
<path d="M32.3952 78.3108C31.8113 78.3108 31.2598 78.0908 30.7963 77.6508C29.8926 76.7991 29.3504 75.1029 29.4431 73.435C29.4616 73.0944 29.6562 72.846 29.8787 72.8744C30.1012 72.9027 30.2634 73.2008 30.2448 73.5415C30.1799 74.7409 30.5785 76.0042 31.2181 76.6075C31.8298 77.1895 32.6686 77.2463 33.5121 76.7636C34.3139 76.3023 35.0137 75.4719 35.7227 74.5777C36.7331 73.3073 37.6785 71.8878 37.7619 70.0993C37.7665 69.9929 37.7712 69.8367 37.748 69.7445C37.7248 69.6593 37.66 69.5671 37.5487 69.4606C36.8397 68.7793 35.9915 68.9496 35.5513 69.1057C34.87 69.3541 34.3139 69.8155 33.6697 70.3548L33.5585 70.4471C33.3638 70.6103 33.1182 70.4968 33.0162 70.1987C32.9096 69.9006 32.9838 69.5316 33.1784 69.3683L33.2897 69.2761C33.957 68.7225 34.5873 68.1973 35.3705 67.9134C36.3438 67.5585 37.2707 67.736 37.9797 68.4244C38.1419 68.5805 38.3737 68.8431 38.4895 69.2761C38.5776 69.6025 38.5729 69.9361 38.5637 70.1845C38.4571 72.4414 37.3772 74.0809 36.2325 75.5216C35.5003 76.4443 34.7078 77.3811 33.7948 77.9063C33.3221 78.176 32.8494 78.3108 32.3952 78.3108Z" fill="#474747"/>
<path d="M36.7053 80C36.1723 80 35.6347 79.8013 35.1573 79.418C34.6012 78.978 34.0265 78.0909 34.0729 76.9411C34.0868 76.6004 34.2814 76.3449 34.4946 76.3662C34.7171 76.3875 34.8839 76.6785 34.87 77.0121C34.8468 77.5799 35.2083 78.0696 35.5281 78.3251C36.024 78.7225 36.594 78.8574 37.1409 78.7083C38.0122 78.4741 38.7676 77.5515 39.3932 76.6785C40.1023 75.692 40.4036 74.8758 40.3433 74.1093C40.2784 73.2221 39.6852 72.626 39.1708 72.5834C38.6564 72.5408 38.128 72.8815 37.5024 73.6693C37.3309 73.8822 37.0806 73.8467 36.937 73.5841C36.7979 73.3215 36.8211 72.9383 36.9926 72.7182C37.4885 72.0937 38.2578 71.2633 39.2171 71.3556C40.0699 71.4336 41.0199 72.4273 41.1358 73.9674C41.2563 75.5358 40.5009 76.785 39.9262 77.5869C39.2588 78.5167 38.3551 79.6239 37.2753 79.9148C37.0853 79.9645 36.8953 79.9929 36.7006 79.9929L36.7053 80Z" fill="#474747"/>
<path d="M26.3565 67.516C26.1619 67.516 25.995 67.303 25.9626 67.005C25.8328 65.7984 25.0079 65.0745 24.5305 64.748C23.1356 63.8041 21.9213 63.8325 20.9249 64.8332C20.7442 65.0177 20.4986 64.9468 20.3734 64.67C18.9645 61.5259 17.2035 59.198 15.1504 57.7573C14.9511 57.6153 14.8584 57.2534 14.9511 56.9411C15.0438 56.6359 15.2802 56.494 15.4841 56.6359C17.5696 58.0979 19.3631 60.4045 20.8183 63.4989C21.9816 62.555 23.3395 62.5905 24.8549 63.6196C25.9348 64.3506 26.6114 65.4791 26.7551 66.7991C26.7921 67.1327 26.6438 67.4521 26.426 67.5018C26.4029 67.5018 26.3797 67.5089 26.3611 67.5089L26.3565 67.516Z" fill="#474747"/>
<path d="M21.0176 31.3414C20.8369 31.3414 20.6747 31.1497 20.6283 30.873C20.5774 30.5465 20.7071 30.2129 20.9249 30.1348C25.0125 28.616 28.7664 26.5294 31.8993 24.6913L32.1774 24.528C33.3731 23.8254 34.6105 23.0944 35.9174 22.8602C38.9252 22.3279 41.6919 24.4003 44.1343 26.2314C44.3336 26.3804 44.417 26.7495 44.3197 27.0546C44.2224 27.3598 43.9814 27.4876 43.7821 27.3385C41.4417 25.5855 38.7861 23.5912 36.0101 24.088C34.8051 24.3009 33.6187 25.0035 32.4694 25.6778L32.1913 25.841C29.0306 27.6934 25.2489 29.7942 21.1196 31.3343C21.0871 31.3485 21.0547 31.3485 21.0269 31.3485L21.0176 31.3414Z" fill="#474747"/>
<path d="M77.6321 61.7104C77.6321 61.7104 77.5997 61.7104 77.5812 61.6962L73.5724 59.269C73.5028 59.2264 73.4704 59.1057 73.4982 59.0064C73.526 58.8999 73.6048 58.8502 73.6697 58.8928L77.6785 61.3201C77.748 61.3627 77.7805 61.4833 77.7527 61.5827C77.7341 61.6607 77.6831 61.7104 77.6275 61.7104H77.6321Z" fill="#8B8B8B"/>
<path d="M78.9901 59.2903C78.9901 59.2903 78.9623 59.2903 78.9437 59.2761C76.7377 58.0696 74.5503 56.643 72.4462 55.039C72.3813 54.9894 72.3535 54.8687 72.386 54.7623C72.4184 54.6629 72.4972 54.6203 72.5667 54.67C74.6615 56.2669 76.8397 57.6863 79.0364 58.8928C79.1059 58.9283 79.143 59.049 79.1152 59.1554C79.0967 59.2406 79.0457 59.2903 78.9901 59.2903Z" fill="#8B8B8B"/>
<path d="M79.3284 55.4933C79.3284 55.4933 79.3006 55.4932 79.2867 55.4791C76.835 54.1874 74.3834 52.7182 72.0106 51.1072C71.941 51.0646 71.9132 50.9439 71.941 50.8375C71.9689 50.731 72.0523 50.6884 72.1172 50.731C74.4854 52.335 76.9277 53.8041 79.3701 55.0887C79.4396 55.1242 79.4767 55.2448 79.4535 55.3513C79.435 55.4365 79.384 55.4862 79.3284 55.4862V55.4933Z" fill="#8B8B8B"/>
<path d="M79.3284 51.8453C79.3284 51.8453 79.2959 51.8453 79.2774 51.8311C76.4272 50.1136 74.2119 48.6302 71.1625 46.5578C71.0929 46.5153 71.0651 46.3946 71.0929 46.2882C71.1207 46.1817 71.2042 46.1391 71.269 46.1817C74.3185 48.247 76.5245 49.7303 79.3747 51.4478C79.4442 51.4904 79.4767 51.6111 79.4489 51.7104C79.4303 51.7885 79.3793 51.8382 79.3237 51.8382L79.3284 51.8453Z" fill="#8B8B8B"/>
<path d="M78.6193 47.7289C78.6193 47.7289 78.5822 47.7289 78.5683 47.7147L70.3839 42.3492C70.3144 42.3066 70.2866 42.186 70.3144 42.0795C70.3422 41.973 70.421 41.9305 70.4905 41.973L78.6749 47.3386C78.7444 47.3811 78.7722 47.5018 78.7444 47.6082C78.7213 47.6863 78.6749 47.7289 78.6193 47.7289Z" fill="#8B8B8B"/>
<path d="M78.3551 43.7899C78.3551 43.7899 78.318 43.7899 78.2995 43.7686L69.4106 37.4379C69.3457 37.3882 69.3133 37.2676 69.3457 37.1682C69.3782 37.0688 69.457 37.0192 69.5218 37.0688L78.4107 43.3996C78.4756 43.4493 78.5081 43.5699 78.4756 43.6693C78.4524 43.7402 78.4061 43.7899 78.3551 43.7899Z" fill="#8B8B8B"/>
<path d="M77.4885 38.8361C77.4885 38.8361 77.4514 38.8361 77.4329 38.8148L68.4652 32.335C68.4003 32.2853 68.3679 32.1647 68.4003 32.0653C68.4327 31.9588 68.5115 31.9233 68.5764 31.9659L77.5441 38.4457C77.609 38.4954 77.6414 38.616 77.609 38.7154C77.5858 38.7864 77.5395 38.8361 77.4885 38.8361Z" fill="#8B8B8B"/>
<path d="M75.4725 32.3563C75.4725 32.3563 75.4401 32.3563 75.4215 32.3421C73.1924 30.9652 70.9215 29.6381 68.6691 28.396C68.5996 28.3605 68.5625 28.2399 68.5903 28.1334C68.6135 28.027 68.6923 27.9702 68.7618 28.0128C71.0188 29.2548 73.2943 30.582 75.5235 31.9588C75.593 32.0014 75.6254 32.1221 75.5976 32.2285C75.5745 32.3066 75.5281 32.3563 75.4725 32.3563Z" fill="#8B8B8B"/>
<path d="M75.2964 27.7999C75.2964 27.7999 75.2593 27.7999 75.2408 27.7857L72.0384 25.6352C71.9689 25.5926 71.941 25.472 71.9688 25.3655C71.9967 25.2591 72.0754 25.2165 72.145 25.2591L75.3474 27.4095C75.4169 27.4521 75.4447 27.5728 75.4169 27.6792C75.3937 27.7573 75.3474 27.7999 75.2964 27.7999Z" fill="#8B8B8B"/>
<path d="M7.4342 21.3201C10.5995 23.0305 13.7973 24.5777 16.8468 26.0469C16.3463 29.4393 15.0625 32.3705 14.2005 35.5713C13.7417 37.2676 13.4034 39.0348 13.0697 40.8091C11.4986 49.0987 9.99706 57.4166 8.55574 65.763C5.73336 64.2087 3.54589 63.4138 0.519592 62.5479C3.3049 48.6231 5.81678 35.2449 7.43884 21.3272L7.4342 21.3201Z" fill="#FCAE16"/>
<g opacity="0.13">
<path d="M20.3085 31.7246C19.6319 35.6636 18.4362 38.5806 17.5557 42.917C17.0227 45.4507 16.6195 48.0412 16.3136 50.6671C16.1236 51.8311 15.9753 53.0092 15.8224 54.1874C15.7112 55.2307 15.5212 56.2952 15.637 57.3527C15.8039 58.3818 16.5129 58.8786 17.0876 58.5451C17.4537 59.1625 17.8384 59.7445 18.2277 60.3265C18.2277 60.2981 18.2277 60.2768 18.2277 60.2484C18.1999 59.0845 18.2091 57.9276 18.2508 56.7637C18.0979 55.9475 18.0423 55.4152 18.0099 54.7481C18.1582 53.4635 18.3482 52.193 18.4455 50.8943C18.8255 46.714 19.5624 42.6473 20.4059 38.6586C20.6608 37.4663 20.8554 36.2385 21.1798 35.0887C21.4069 34.0525 21.7823 32.995 21.7823 31.8808C21.7081 30.5891 20.4986 30.4613 20.3039 31.7175L20.3085 31.7246Z" fill="#7BC3F5"/>
</g>
<g opacity="0.13">
<path d="M21.0732 63.6764C21.0315 63.9319 20.8786 64.1235 20.7164 64.1093C20.8461 64.2229 20.9898 64.2796 21.1427 64.2087C21.3791 64.1093 21.5367 63.7261 21.5228 63.3428C21.3745 63.4564 21.2215 63.5699 21.0732 63.6835V63.6764Z" fill="#7BC3F5"/>
</g>
<g opacity="0.13">
<path d="M15.6417 57.3527L15.6046 56.8843C15.6046 57.0546 15.6185 57.2037 15.6417 57.3527Z" fill="#7BC3F5"/>
</g>
<path d="M13.3476 68.0341C13.3244 68.0341 13.2966 68.0341 13.2734 68.0199C10.9933 67.3527 8.63435 66.6643 6.30786 65.6423C5.40877 65.1597 4.53749 64.8403 3.61987 64.5067C2.61883 64.1377 1.58071 63.7615 0.524053 63.1654C0.315503 63.0518 0.20891 62.6969 0.287696 62.3776C0.366482 62.0582 0.59357 61.895 0.802121 62.0156C1.81707 62.5905 2.83201 62.9595 3.80988 63.3144C4.70897 63.6409 5.63586 63.9815 6.55348 64.4713C8.69924 65.4081 10.9052 66.0752 13.051 66.6998C13.9825 60.653 15.2477 54.7481 16.4712 49.0277C17.1988 45.621 17.9542 42.1008 18.6401 38.5451C18.6401 38.5309 18.6448 38.5167 18.6494 38.5025C18.8811 37.5798 19.1268 36.6714 19.3631 35.7984C20.0119 33.428 20.6237 31.1781 20.9249 28.5806C20.9157 28.5593 20.9018 28.538 20.8879 28.5238C20.8369 28.5238 20.8091 28.5167 20.7627 28.4812C18.7467 27.2463 16.6381 26.3449 14.5989 25.4791C12.1843 24.45 9.68638 23.3854 7.25792 21.7459C7.054 21.6111 6.96595 21.2491 7.054 20.9368C7.14206 20.6246 7.37842 20.4897 7.58233 20.6246C9.95517 22.2285 12.4253 23.286 14.8121 24.3009C16.8559 25.1739 18.9646 26.0681 21.0037 27.3102C21.3976 27.3882 21.7313 27.9631 21.7313 28.5877C21.7313 28.6231 21.7313 28.6586 21.7267 28.6941C21.4116 31.4691 20.7442 33.9106 20.1 36.2669C19.8636 37.1256 19.6227 38.0128 19.4002 38.9141C18.7097 42.484 17.9589 46.0043 17.2266 49.4109C15.9105 55.5571 14.6684 61.3556 13.7369 67.5515C13.6952 67.8353 13.5283 68.027 13.3476 68.027V68.0341Z" fill="#474747"/>
<path d="M8.67144 66.1391C8.63899 66.1391 8.61119 66.1391 8.57875 66.1249C8.36556 66.0468 8.23116 65.7133 8.28214 65.3868C10.4047 51.7743 13.3939 37.303 16.4851 25.692C16.5686 25.3797 16.8049 25.2306 17.0088 25.3513C17.2127 25.4791 17.3147 25.841 17.2313 26.1533C14.1586 37.7147 11.1787 52.115 9.06536 65.6707C9.02365 65.9546 8.85681 66.1391 8.67607 66.1391H8.67144Z" fill="#474747"/>
<path d="M60.1232 70.6246C59.9703 70.6246 59.822 70.4897 59.7571 70.2555C59.669 69.9432 59.7617 69.5813 59.9656 69.4464C62.6258 67.6863 65.3092 65.8552 67.9369 64.0099C68.1362 63.868 68.3772 64.0099 68.4699 64.3151C68.5625 64.6203 68.4699 64.9893 68.2706 65.1313C65.6336 66.9837 62.9456 68.8148 60.2808 70.582C60.2298 70.6175 60.1742 70.6316 60.1232 70.6316V70.6246Z" fill="#474747"/>
<path d="M53.431 24.7338C53.2086 24.7338 53.0325 24.45 53.0325 24.1164L53.1483 6.87721C53.1483 6.54364 53.3291 6.26685 53.5469 6.26685C53.7694 6.26685 53.9455 6.55073 53.9455 6.8843L53.8296 24.1235C53.8296 24.4571 53.6489 24.7338 53.431 24.7338Z" fill="#FCAE16"/>
<path d="M51.1787 11.8737C51.086 11.8737 50.9933 11.824 50.9191 11.7246C50.7523 11.5046 50.7291 11.1143 50.8728 10.8588C51.7765 9.24061 52.5829 7.4663 53.2734 5.58553C53.3476 5.38681 53.4913 5.28035 53.6303 5.27325C53.7786 5.27325 53.913 5.4081 53.9779 5.60682L54.052 5.83394C54.7101 7.79277 55.1411 9.08447 56.0124 10.802C56.1468 11.0717 56.1144 11.4549 55.9429 11.6608C55.7668 11.8666 55.5165 11.8169 55.3821 11.5543C54.5896 9.99291 54.1308 8.72961 53.5979 7.16822C52.9722 8.758 52.2585 10.2626 51.4799 11.6608C51.4011 11.8027 51.2899 11.8737 51.174 11.8737H51.1787Z" fill="#FCAE16"/>
<path d="M43.1147 19.4535C42.8923 19.4535 42.7162 19.1696 42.7162 18.8361L42.832 1.59687C42.832 1.2633 43.0128 0.986511 43.2306 0.986511C43.453 0.986511 43.6291 1.2704 43.6291 1.60397L43.5133 18.8431C43.5133 19.1767 43.3325 19.4535 43.1147 19.4535Z" fill="#FCAE16"/>
<path d="M40.8577 6.60043C40.7651 6.60043 40.6724 6.55075 40.5982 6.45138C40.4314 6.23137 40.4082 5.84102 40.5519 5.58552C41.4556 3.96735 42.262 2.19304 42.9525 0.312278C43.0267 0.113556 43.1611 0 43.3094 0C43.4577 0 43.5921 0.134847 43.657 0.33357L43.7311 0.553584C44.3892 2.51242 44.8248 3.80412 45.6961 5.52874C45.8305 5.79844 45.7981 6.18169 45.6266 6.38751C45.4505 6.59333 45.2002 6.54365 45.0658 6.28105C44.2733 4.71966 43.8145 3.45635 43.2816 1.89496C42.6559 3.48474 41.9422 4.98935 41.1636 6.38751C41.0848 6.52945 40.9736 6.60043 40.8577 6.60043Z" fill="#FCAE16"/>
<path d="M31.3756 21.7317C31.1532 21.7317 30.9771 21.4478 30.9771 21.1143L31.0929 3.8751C31.0929 3.54153 31.2737 3.26474 31.4915 3.26474C31.7139 3.26474 31.89 3.54863 31.89 3.8822L31.7742 21.1214C31.7742 21.4549 31.5934 21.7317 31.3756 21.7317Z" fill="#FCAE16"/>
<path d="M29.1233 8.87154C29.0306 8.87154 28.9379 8.82186 28.8638 8.7225C28.6969 8.50249 28.6737 8.11214 28.8174 7.85664C29.7211 6.23847 30.5275 4.46416 31.2181 2.5834C31.2922 2.38467 31.4359 2.27112 31.5749 2.27112C31.7232 2.27112 31.8576 2.40597 31.9225 2.60469L31.9966 2.8318C32.6547 4.79064 33.0857 6.08233 33.9617 7.79986C34.0961 8.06956 34.0636 8.45281 33.8921 8.65863C33.716 8.86445 33.4658 8.82186 33.3314 8.55217C32.5389 6.99078 32.0801 5.72747 31.5471 4.16608C30.9215 5.75586 30.2077 7.26047 29.4292 8.65863C29.3504 8.80057 29.2391 8.87154 29.1233 8.87154Z" fill="#FCAE16"/>
</g>
<defs>
<clipPath id="clip0_150_429">
<rect width="79.9444" height="80" fill="white" transform="translate(0.259888)"/>
</clipPath>
</defs>
</svg>
