<svg width="81" height="80" viewBox="0 0 81 80" fill="none" xmlns="http://www.w3.org/2000/svg">
<g clip-path="url(#clip0_150_177)">
<path d="M2.13852 50.3541L7.70527 49.1996C7.70527 49.1996 4.2806 37.2389 12.8225 25.6233C21.3643 14.0077 33.8598 12.3892 35.5258 12.163C37.1919 11.9488 38.9769 11.7941 38.9769 11.7941V17.4829L53.6409 9.14013L38.9769 1.0592V6.54567C38.9769 6.54567 19.9363 6.34334 8.22096 22.4695C-2.33075 37.0009 2.13852 50.3541 2.13852 50.3541Z" fill="white" stroke="black" stroke-miterlimit="10"/>
<path d="M7.11025 61.3627L12.0555 58.7444C12.0555 58.7444 18.7991 69.0747 28.888 72.0381C38.9769 75.0015 42.2958 74.5611 47.77 73.5614C53.2442 72.5617 53.9583 71.931 53.9583 71.931L56.3119 76.7391C56.3119 76.7391 43.1156 82.285 28.3459 77.3817C12.2803 72.0619 7.11025 61.3627 7.11025 61.3627Z" fill="white" stroke="black" stroke-miterlimit="10"/>
<path d="M73.7262 51.1038L79.2268 52.3892C79.2268 52.3892 77.6798 58.1731 74.8104 62.0172C71.9411 65.8613 68.3578 69.4793 68.3578 69.4793L64.391 65.6709C64.391 65.6709 67.2867 62.648 69.2569 60.2916C71.2271 57.9351 73.713 51.568 73.713 51.1038H73.7262Z" fill="#8B8B8B"/>
<path d="M74.784 40.845L80.483 40.476C80.483 40.476 80.0863 35.7513 79.3062 33.1687C78.2087 29.5031 76.4897 26.873 76.4897 26.873L71.3593 29.2056C71.3593 29.2056 73.0518 32.4784 73.713 35.3109C74.3741 38.1434 74.7708 40.845 74.7708 40.845H74.784Z" fill="#8B8B8B"/>
<path d="M68.0272 24.1833L72.6155 21.0295C72.6155 21.0295 71.0816 19.1967 69.8784 18.0661C68.6751 16.9354 66.414 14.9836 66.414 14.9836L62.7513 19.0301C62.7513 19.0301 63.9546 19.9346 65.581 21.4579C67.2074 22.9813 68.0272 24.1952 68.0272 24.1952V24.1833Z" fill="#8B8B8B"/>
<path d="M35.2217 47.2716C36.7026 46.2719 38.0117 45.2246 39.1224 44.1416C40.9603 42.3564 41.8992 40.2261 41.8992 37.8221C41.8992 35.418 40.9339 33.2639 39.0298 31.5382C37.1258 29.8125 34.7721 28.9438 32.0482 28.9438C29.3244 28.9438 27.0104 29.8244 25.0931 31.562C24.0089 32.5498 22.1709 34.7754 22.1709 38.5837V39.2383H27.3145L27.3806 38.6552C27.579 36.87 28.0682 35.6084 28.8219 34.9301C29.7343 34.1208 30.7789 33.728 32.035 33.728C33.2912 33.728 34.3754 34.1208 35.2746 34.9301C36.1737 35.7394 36.6101 36.6915 36.6101 37.834C36.6101 38.9765 36.1341 40.0357 35.1556 40.9997C34.0978 42.047 32.8681 43.0348 31.5193 43.9393L26.4683 47.3311C25.384 48.0571 21.88 50.8301 22.1973 56.138L22.237 56.7569H41.8859V52.044H29.5756C30.0913 51.2228 31.7573 49.5924 35.2085 47.2716H35.2217Z" fill="#FCAE16"/>
<path d="M58.2953 44.8676V28.9914H53.1781L41.2512 49.6043H52.8872V56.745H58.2953V49.6043H62.4076V44.8676H58.2953ZM50.4542 44.8676L52.9004 40.3213V44.8676H50.4542Z" fill="#FCAE16"/>
</g>
<defs>
<clipPath id="clip0_150_177">
<rect width="79.9444" height="80" fill="white" transform="translate(0.538574)"/>
</clipPath>
</defs>
</svg>
