<svg width="24" height="24" viewBox="0 0 24 24" fill="none" xmlns="http://www.w3.org/2000/svg">
<g clip-path="url(#clip0_164_617)">
<path d="M14.25 11.25C14.2498 11.8469 14.0125 12.4193 13.5903 12.8413C13.168 13.2633 12.5955 13.5002 11.9985 13.5C11.4016 13.4998 10.8292 13.2625 10.4072 12.8402C9.98528 12.418 9.74834 11.8454 9.74854 11.2485C9.74873 10.6516 9.98606 10.0792 10.4083 9.6572C10.8305 9.23524 11.4031 8.9983 12 8.9985C12.597 8.9987 13.1694 9.23602 13.5913 9.65826C14.0133 10.0805 14.2502 10.6531 14.25 11.25ZM21.405 6H17.595C16.9068 6 16.2467 6.2734 15.7601 6.76006C15.2734 7.24671 15 7.90676 15 8.595V13.5C15 13.8978 15.1581 14.2794 15.4394 14.5607C15.7207 14.842 16.1022 15 16.5 15V24H22.5V15C22.8979 15 23.2794 14.842 23.5607 14.5607C23.842 14.2794 24 13.8978 24 13.5V8.595C24 7.90676 23.7266 7.24671 23.24 6.76006C22.7533 6.2734 22.0933 6 21.405 6Z" fill="#FCAE16"/>
<path d="M22.5 3.00005C22.509 3.39956 22.4382 3.79684 22.2915 4.16858C22.1449 4.54033 21.9255 4.87903 21.6462 5.16481C21.3669 5.45059 21.0333 5.67768 20.665 5.83276C20.2967 5.98784 19.9011 6.06777 19.5015 6.06787C19.1019 6.06797 18.7063 5.98823 18.3379 5.83334C17.9696 5.67845 17.6359 5.45152 17.3564 5.16588C17.0769 4.88024 16.8573 4.54165 16.7105 4.16998C16.5637 3.79831 16.4927 3.40106 16.5015 3.00155C16.5188 2.21771 16.8423 1.4718 17.4028 0.923492C17.9632 0.375189 18.716 0.0680672 19.5 0.0678712C20.284 0.0676751 21.037 0.374421 21.5977 0.922443C22.1584 1.47047 22.4823 2.21621 22.5 3.00005ZM6.405 7.50005H2.595C2.25412 7.50015 1.9166 7.56739 1.60171 7.69792C1.28681 7.82846 1.00072 8.01975 0.759747 8.26086C0.518779 8.50196 0.32766 8.78817 0.197303 9.10314C0.0669451 9.41811 -9.8383e-05 9.75567 1.0836e-07 10.0965C9.85998e-05 10.4374 0.0673372 10.7749 0.197877 11.0898C0.328416 11.4047 0.519701 11.6908 0.760808 11.9318C1.00192 12.1728 1.28812 12.3639 1.60309 12.4942C1.91806 12.6246 2.25562 12.6916 2.5965 12.6915C3.28494 12.6913 3.9451 12.4177 4.43175 11.9307C4.91841 11.4438 5.1917 10.7835 5.1915 10.095C5.1913 9.40661 4.91763 8.74645 4.43069 8.2598C3.94375 7.77314 3.28344 7.49985 2.595 7.50005C1.90676 7.50005 1.2464 7.7742 0.759747 8.26086C0.27309 8.74751 1.0836e-07 9.40831 1.0836e-07 10.0965L1.63061e-07 13.5C1.63061e-07 13.8979 0.158035 14.2794 0.43934 14.5607C0.720645 14.842 1.10218 15 1.5 15L1.63061e-07 19.5H1.5V24H7.5V19.5H9L7.5 15C7.89782 15 8.27936 14.842 8.56066 14.5607C8.84196 14.2794 9 13.8979 9 13.5V10.095C9 9.75427 8.93288 9.41682 8.80247 9.10198C8.67206 8.78714 8.48091 8.50107 8.23994 8.26011C7.99897 8.01914 7.7129 7.82799 7.39806 7.69758C7.08322 7.56717 6.74578 7.50005 6.405 7.50005Z" fill="#FCAE16"/>
<path d="M7.49997 4.50005C7.509 4.89956 7.43813 5.29684 7.29151 5.66858C7.14489 6.04033 6.92548 6.37903 6.64616 6.66481C6.36684 6.95059 6.03324 7.17768 5.66495 7.33276C5.29666 7.48784 4.90109 7.56777 4.50148 7.56787C4.10187 7.56797 3.70627 7.48823 3.3379 7.33334C2.96953 7.17845 2.63582 6.95152 2.35635 6.66588C2.07689 6.38024 1.85731 6.04165 1.71051 5.66998C1.5637 5.29831 1.49263 4.90106 1.50147 4.50155C1.5188 3.71771 1.8423 2.9718 2.40272 2.42349C2.96315 1.87519 3.71595 1.56807 4.49998 1.56787C5.28402 1.56768 6.03697 1.87442 6.59767 2.42244C7.15836 2.97047 7.48224 3.71621 7.49997 4.50005ZM10.5 19.5V24H13.5V19.5C13.8978 19.5 14.2793 19.342 14.5606 19.0607C14.8419 18.7794 15 18.3979 15 18V15.69C15 15.1092 14.7692 14.5522 14.3585 14.1415C13.9478 13.7308 13.3908 13.5 12.81 13.5H11.19C10.6091 13.5 10.0521 13.7308 9.6414 14.1415C9.2307 14.5522 8.99997 15.1092 8.99997 15.69V18C8.99997 18.3979 9.158 18.7794 9.43931 19.0607C9.72061 19.342 10.1021 19.5 10.5 19.5Z" fill="#FCAE16"/>
</g>
<defs>
<clipPath id="clip0_164_617">
<rect width="24" height="24" fill="white"/>
</clipPath>
</defs>
</svg>
